<mxfile host="app.diagrams.net" modified="2023-11-02T15:51:53.434Z" agent="Mozilla/5.0 (Windows NT 10.0; Win64; x64) AppleWebKit/537.36 (KHTML, like Gecko) Chrome/118.0.0.0 Safari/537.36" etag="DHOn-sxhzvrVv00M7NVP" version="22.0.8" type="device">
  <diagram name="Page-1" id="Mm0hC2-zrbVgDmfwnK1h">
    <mxGraphModel dx="522" dy="591" grid="0" gridSize="10" guides="1" tooltips="1" connect="1" arrows="1" fold="1" page="1" pageScale="1" pageWidth="827" pageHeight="1169" math="0" shadow="0">
      <root>
        <mxCell id="0" />
        <mxCell id="1" parent="0" />
        <mxCell id="ilN-TtbJeAgJVe7DlZwe-1" value="" style="endArrow=open;endFill=1;endSize=12;html=1;rounded=0;fontSize=12;curved=1;" parent="1" edge="1">
          <mxGeometry width="160" relative="1" as="geometry">
            <mxPoint x="325" y="307" as="sourcePoint" />
            <mxPoint x="485" y="307" as="targetPoint" />
          </mxGeometry>
        </mxCell>
      </root>
    </mxGraphModel>
  </diagram>
</mxfile>
